{"title":"The boy 2016 BluRay 720p H264 AC3 [ITRG][IndexTorrent].mkv","uid":14662818,"size":912355295,"categoryP":"video","categoryS":"hd___movies","magnet":"?xt=urn:btih:a6b396e9158b14852b9299a097cee441d35e7846&amp;dn=The+boy+2016+BluRay+720p+H264+AC3+%5BITRG%5D%5BIndexTorrent%5D.mkv&amp;tr=udp%3A%2F%2Ftracker.leechers-paradise.org%3A6969&amp;tr=udp%3A%2F%2Fzer0day.ch%3A1337&amp;tr=udp%3A%2F%2Fopen.demonii.com%3A1337&amp;tr=udp%3A%2F%2Ftracker.coppersurfer.tk%3A6969&amp;tr=udp%3A%2F%2Fexodus.desync.com%3A6969","seeders":3,"leechers":0,"uploader":"ITRG","files":5,"time":1463780897,"description":"screen shots \nhttp://extraimago.com/images/2016/05/20/122c14.jpg \nhttp://extraimago.com/images/2016/05/20/21cf4c.jpg \nhttp://extraimago.com/images/2016/05/20/3f5358.jpg\r\n\r\nGeneral\r\nUnique ID                   : 152334403673101156472983110177469524159 (0x729A89F93EF000ECF1D12F7CDE0468BF)\r\nComplete name               : C:BDConvertedThe boy 2016 1080The boy 2016 1080 BluRay 720p H264 AC3 [ITRG][IndexTorrent.com].mkvThe boy 2016 1080 BluRay 720p H264 AC3 [ITRG][IndexTorrent.com].mkv\r\nFormat                      : Matroska\r\nFormat version              : Version 2\r\nFile size                   : 870 MiB\r\nDuration                    : 1h 37mn\r\nOverall bit rate            : 1 243 Kbps\r\nEncoded date                : UTC 2016-05-16T10:22:33Z\r\nWriting application         : HandBrake 0.10.3 2016012200\r\nWriting library             : Lavf55.12.0 / Lavf55.12.0\r\n\r\nVideo\r\nID                          : 1\r\nFormat                      : AVC\r\nFormat/Info                 : Advanced Video Codec\r\nFormat profile              :   \r\nFormat settings, CABAC      : Yes\r\nFormat settings, ReFrames   : 4 frames\r\nCodec ID                    : V_MPEG4/ISO/AVC\r\nDuration                    : 1h 37mn\r\nBit rate                    : 1 150 Kbps\r\nWidth                       : 720 pixels\r\nHeight                      : 320 pixels\r\nDisplay aspect ratio        : 2.25:1\r\nFrame rate mode             : Constant\r\nFrame rate                  : 23.976 (24000/1001) fps\r\nColor space                 : YUV\r\nChroma subsampling          : 4:2:0\r\nBit depth                   : 8 bits\r\nScan type                   : Progressive\r\nBits/(Pixel*Frame)          : 0.208\r\nStream size                 : 785 MiB (90%)\r\n\r\nDefault                     : Yes\r\nForced                      : No\r\nColor range                 : Limited\r\nColor primaries             : BT.709\r\nTransfer characteristics    : BT.709\r\nMatrix coefficients         : BT.709\r\n\r\nAudio\r\nID                          : 2\r\nFormat                      : AC-3\r\nFormat/Info                 : Audio Coding 3\r\nMode extension              : CM (complete main)\r\nFormat settings, Endianness : Big\r\nCodec ID                    : A_AC3\r\nDuration                    : 1h 37mn\r\nBit rate mode               : Constant\r\nBit rate                    : 96.0 Kbps\r\nChannel(s)                  : 2 channels\r\nChannel positions           : Front: L R\r\nSampling rate               : 48.0 KHz\r\nFrame rate                  : 31.250 fps (1536 spf)\r\nCompression mode            : Lossy\r\nDelay relative to video     : -5ms\r\nStream size                 : 67.2 MiB (8%)\r\nTitle                       : Stereo\r\nLanguage                    : English\r\nDefault                     : Yes\r\nForced                      : No","torrent":{"xt":"urn:btih:a6b396e9158b14852b9299a097cee441d35e7846","amp;dn":"The+boy+2016+BluRay+720p+H264+AC3+%5BITRG%5D%5BIndexTorrent%5D.mkv","amp;tr":["udp%3A%2F%2Ftracker.leechers-paradise.org%3A6969","udp%3A%2F%2Fzer0day.ch%3A1337","udp%3A%2F%2Fopen.demonii.com%3A1337","udp%3A%2F%2Ftracker.coppersurfer.tk%3A6969","udp%3A%2F%2Fexodus.desync.com%3A6969"],"infoHash":"a6b396e9158b14852b9299a097cee441d35e7846","infoHashBuffer":{"type":"Buffer","data":[166,179,150,233,21,139,20,133,43,146,153,160,151,206,228,65,211,94,120,70]},"announce":[],"urlList":[]}}